<svg width="24.000000" height="24.000000" viewBox="0 0 24 24" fill="none" xmlns="http://www.w3.org/2000/svg" xmlns:xlink="http://www.w3.org/1999/xlink">
	<desc>
			Created with Pixso.
	</desc>
	<defs>
		<clipPath id="clip7052_75217">
			<rect id="heroicons-solid/phone" rx="0.000000" width="22.666666" height="22.666666" transform="translate(0.666667 0.666667)" fill="white" fill-opacity="0"/>
		</clipPath>
	</defs>
	<g clip-path="url(#clip7052_75217)">
		<path id="Vector (Stroke)" d="M1.5 4.5L1.5 6.75C1.5 15.44 8.55 22.5 17.25 22.5L19.5 22.5C21.15 22.5 22.5 21.15 22.5 19.5L22.5 18.12C22.5 17.26 21.91 16.51 21.07 16.3L16.65 15.2C15.92 15.02 15.15 15.29 14.7 15.89L13.73 17.19C13.63 17.32 13.48 17.35 13.38 17.31C10.28 16.18 7.81 13.71 6.68 10.61C6.64 10.51 6.67 10.36 6.8 10.26L8.1 9.29C8.7 8.84 8.97 8.07 8.79 7.34L7.69 2.92C7.48 2.08 6.73 1.5 5.87 1.5L4.5 1.5C2.84 1.5 1.5 2.84 1.5 4.5Z" stroke="#010101" stroke-opacity="1.000000" stroke-width="1.500000"/>
	</g>
</svg>
