<svg width="24" height="25" viewBox="0 0 24 25" fill="none" xmlns="http://www.w3.org/2000/svg">
<path d="M15.75 11.1288V6.62885C15.75 4.55778 14.0711 2.87885 12 2.87885C9.92893 2.87885 8.25 4.55778 8.25 6.62885V11.1288M19.606 9.13607L20.8692 21.1361C20.9391 21.8003 20.4183 22.3788 19.7504 22.3788H4.24963C3.58172 22.3788 3.06089 21.8003 3.13081 21.1361L4.39397 9.13607C4.45424 8.56351 4.93706 8.12885 5.51279 8.12885H18.4872C19.0629 8.12885 19.5458 8.56351 19.606 9.13607ZM8.625 11.1288C8.625 11.336 8.4571 11.5038 8.25 11.5038C8.04289 11.5038 7.875 11.336 7.875 11.1288C7.875 10.9217 8.04289 10.7538 8.25 10.7538C8.4571 10.7538 8.625 10.9217 8.625 11.1288ZM16.125 11.1288C16.125 11.336 15.9571 11.5038 15.75 11.5038C15.5429 11.5038 15.375 11.336 15.375 11.1288C15.375 10.9217 15.5429 10.7538 15.75 10.7538C15.9571 10.7538 16.125 10.9217 16.125 11.1288Z" stroke="#010101" stroke-width="1.5" stroke-linecap="round" stroke-linejoin="round"/>
</svg>
