<svg width="32" height="33" viewBox="0 0 32 33" fill="none" xmlns="http://www.w3.org/2000/svg">
<path d="M31.6812 9.85796C31.6812 9.85796 31.3688 7.65171 30.4062 6.68296C29.1875 5.40796 27.825 5.40171 27.2 5.32671C22.725 5.00171 16.0063 5.00171 16.0063 5.00171H15.9937C15.9937 5.00171 9.275 5.00171 4.8 5.32671C4.175 5.40171 2.8125 5.40796 1.59375 6.68296C0.63125 7.65171 0.325 9.85796 0.325 9.85796C0.325 9.85796 0 12.4517 0 15.0392V17.4642C0 20.0517 0.31875 22.6455 0.31875 22.6455C0.31875 22.6455 0.63125 24.8517 1.5875 25.8205C2.80625 27.0955 4.40625 27.0517 5.11875 27.1892C7.68125 27.433 16 27.508 16 27.508C16 27.508 22.725 27.4955 27.2 27.1767C27.825 27.1017 29.1875 27.0955 30.4062 25.8205C31.3688 24.8517 31.6812 22.6455 31.6812 22.6455C31.6812 22.6455 32 20.058 32 17.4642V15.0392C32 12.4517 31.6812 9.85796 31.6812 9.85796ZM12.6938 20.408V11.4142L21.3375 15.9267L12.6938 20.408Z" fill="#010101"/>
</svg>
